<?xml version="1.0" encoding="utf-8"?>
<!-- Generator: Adobe Illustrator 24.2.0, SVG Export Plug-In . SVG Version: 6.00 Build 0)  -->
<svg version="1.1" id="Layer_1" xmlns="http://www.w3.org/2000/svg" xmlns:xlink="http://www.w3.org/1999/xlink" x="0px" y="0px"
	 viewBox="0 0 559 218.3" style="enable-background:new 0 0 559 218.3;" xml:space="preserve">
<style type="text/css">
	.st0{fill:#2D2F30;}
	.st1{fill:#088C76;}
	.st2{fill:#057861;}
	.st3{fill:#035746;}
</style>
<g>
	<g>
		<path class="st0" d="M138.8,215.6h-35.2c-1.8,0-3.3-1.5-3.3-3.3V101.4c0-1.8,1.5-3.3,3.3-3.3h36.8c17.1,0,29.7,5.4,38,16.1
			c8.3,10.7,12.4,24.7,12.4,42c0,11.2-2,21.3-6,30.2c-4,9-9.9,16.1-17.7,21.3C159.3,213,149.9,215.6,138.8,215.6z M140.9,107.2H111
			v99.4h28.2c8.2,0,15.4-2.1,21.6-6.2c6.2-4.1,11.1-10,14.5-17.6c3.5-7.6,5.2-16.4,5.2-26.4c0-14.6-3.4-26.5-10.1-35.5
			C163.6,111.7,153.8,107.2,140.9,107.2z"/>
		<path class="st0" d="M276,174.3h-60.4c0.1,10.7,2.6,19.2,7.6,25.5c5,6.3,12.8,9.4,23.5,9.4c4.6,0,9-0.6,13.1-1.8
			c3.7-1.1,7.5-2.6,11.5-4.6c0.9-0.4,2-0.1,2.4,0.8l2.2,4.7c0.4,0.9,0,1.9-0.8,2.3c-4.4,2.3-8.5,4-12.4,5.2c-4.3,1.3-9.5,2-15.5,2
			c-14.1,0-24.7-4-31.8-12.1c-7.1-8.1-10.7-18.9-10.7-32.5c0.1-13,3.5-23.6,10.1-31.6c6.6-8.1,15.9-12.1,27.9-12.1
			c11.9,0,20.7,4.1,26.4,12.2c5.5,7.8,8.4,18,8.6,30.8C277.8,173.5,277,174.3,276,174.3z M215.9,166.8h51
			c-1.8-18.9-10.1-28.3-24.7-28.3c-8,0-14.1,2.6-18.5,7.7C219.3,151.3,216.7,158.2,215.9,166.8z"/>
		<path class="st0" d="M328.7,218.3c-4.3,0-8.4-0.8-12.4-2.4c-4-1.6-7.6-3.9-11-6.7l-2,6.1c-0.1,0.5-0.6,0.8-1.1,0.8h-5.2
			c-0.6,0-1.1-0.5-1.1-1.1V111c0-0.6,0.5-1,1.1-0.9l8.9,2c0.4,0.1,0.7,0.5,0.7,0.9v25.3c7.3-5.5,14.3-8.3,21.3-8.3
			c8.1,0,15,1.9,20.8,5.7c5.8,3.8,10.3,9,13.3,15.7c3.1,6.7,4.6,14.2,4.8,22.6c0,13.4-3.3,24.1-10,32.1
			C350.2,214.3,340.8,218.3,328.7,218.3z M328.5,139c-4.7,0-8.8,0.8-12.1,2.4c-3.3,1.6-6.6,3.8-9.7,6.6v51.5c3,3.1,6.3,5.5,9.9,7.3
			c3.6,1.7,7.7,2.6,12.3,2.6c9.1,0,15.9-3.2,20.4-9.6c4.5-6.4,6.7-15,6.7-25.8c-0.1-10.3-2.5-18.6-7.2-25.1
			C344.2,142.3,337.4,139,328.5,139z"/>
		<path class="st0" d="M414.7,134l2.9,6.5c0.2,0.5-0.2,1.1-0.7,1.1h-17.6v52.7c0,4.4,1,7.8,2.9,10.4c1.9,2.5,4.9,3.8,8.9,3.8
			c1.9,0,3.7-0.3,5.7-1c0.8-0.3,1.6,0.2,1.8,1l1.4,6.1c0.2,0.7-0.2,1.4-0.9,1.6c-0.6,0.2-1.3,0.4-2.3,0.7c-2,0.6-4.6,1-8,1
			c-6.2,0-11.2-1.9-14.9-5.8c-3.7-3.9-5.5-9.4-5.5-16.5v-53.9h-11.5c-0.4,0-0.8-0.3-0.8-0.8l-0.1-6.5c0-0.4,0.4-0.8,0.8-0.8h11.6
			v-20.6c0-0.3,0.2-0.6,0.5-0.7l9.5-2.2c0.4-0.1,0.8,0.2,0.8,0.7v22.7H414C414.3,133.5,414.6,133.7,414.7,134z"/>
		<g>
			<path class="st1" d="M446.5,122.2c-1.6-1.5-3.4-2.2-5.4-2.2c-2.3,0-4.1,0.7-5.5,2.2c-1.4,1.5-2.1,3.3-2.1,5.4
				c0,2.2,0.7,3.9,2.1,5.4c0.2,0.2,0.4,0.4,0.6,0.6c1.3,1.1,2.9,1.6,4.9,1.6c1.8,0,3.3-0.5,4.7-1.6c0.2-0.2,0.5-0.4,0.7-0.6
				c1.6-1.5,2.3-3.2,2.3-5.4C448.9,125.4,448.1,123.6,446.5,122.2z"/>
			<path class="st1" d="M441.1,147.1c-2.2,0-4-0.7-5.4-2.1v69.2c0,0.8,0.6,1.4,1.4,1.4h8.1c0.8,0,1.4-0.6,1.4-1.4v-69.4
				c0,0-0.1,0.1-0.1,0.1C445,146.4,443.2,147.1,441.1,147.1z"/>
			<path class="st1" d="M556.7,203.6c-1.6-1.5-3.4-2.2-5.4-2.2c-2.3,0-4.1,0.7-5.5,2.2c-1.4,1.5-2.1,3.3-2.1,5.4
				c0,2.2,0.7,3.9,2.1,5.4c0.2,0.2,0.4,0.4,0.6,0.6c1.3,1.1,2.9,1.6,4.9,1.6c1.8,0,3.3-0.5,4.7-1.6c0.2-0.2,0.5-0.4,0.7-0.6
				c1.6-1.5,2.3-3.2,2.3-5.4C559,206.9,558.2,205.1,556.7,203.6z"/>
		</g>
		<path class="st1" d="M475.3,142.6l-1.9-4.4c-0.4-0.9-0.1-1.9,0.8-2.3c2.9-1.7,6.7-3.1,11.4-4.3c5.5-1.4,10.2-2.1,14-2.1
			c9.6,0,17.2,2.5,22.8,7.4c5.6,5,8.5,11.6,8.5,19.9v57.4c0,0.8-0.6,1.4-1.4,1.4h-6.2c-0.7,0-1.3-0.5-1.4-1.2l-1.2-7.8
			c-2.9,3-6.7,5.6-11.5,7.9c-4.8,2.2-9.5,3.4-14.1,3.4c-9.1,0-16.1-2.4-20.9-7.2c-4.8-4.8-7.3-11-7.3-18.6c0-7.8,2.8-14,8.3-18.5
			c5.5-4.5,12.7-6.7,21.6-6.6h23.3v-8.5c0-6.1-1.7-11-5.1-14.6c-3.4-3.6-8.4-5.4-15-5.4c-5.4,0-9.7,0.5-12.7,1.4
			c-2.7,0.8-5.9,2-9.6,3.7C476.8,144,475.7,143.6,475.3,142.6z M477.4,192.1c0,4.5,1.4,8.4,4.3,11.8c2.9,3.4,7.2,5.1,13,5.1
			c5.1,0,9.8-1.3,14.1-3.9c4.3-2.6,8.1-5.8,11.3-9.8v-21.3h-23.7c-6,0-10.7,1.7-14,5.2C479.1,182.7,477.4,187,477.4,192.1z"/>
	</g>
	<g>
		<polygon class="st2" points="59.3,7.6 59.3,59.3 7.6,59.3 59.3,111 111,59.3 		"/>
		<polygon class="st1" points="7.6,59.3 59.3,111 59.3,59.3 		"/>
		<polygon class="st2" points="59.3,111 111,59.3 59.3,59.3 		"/>
		<polygon class="st3" points="111,59.3 59.3,7.6 59.3,59.3 		"/>
		<polygon class="st0" points="51.7,0 0,51.7 51.7,51.7 		"/>
	</g>
</g>
</svg>
